solid K1_modelled_display_fin_units_mm
  facet normal -1 0 -0
    outer loop
      vertex 0 41.5 0.4
      vertex 0 41.5 0
      vertex 0 0 0
    endloop
  endfacet
  facet normal -1 0 -0
    outer loop
      vertex 0 1.5 0.4
      vertex 0 41.5 0.4
      vertex 0 0 0
    endloop
  endfacet
  facet normal -1 0 0
    outer loop
      vertex 0 0 5
      vertex 0 1.5 0.4
      vertex 0 0 0
    endloop
  endfacet
  facet normal -1 0 0
    outer loop
      vertex 0 0 5
      vertex 0 1.5 5
      vertex 0 1.5 0.4
    endloop
  endfacet
  facet normal 1 0 0
    outer loop
      vertex 150 0 0
      vertex 150 41.5 0
      vertex 150 41.5 0.4
    endloop
  endfacet
  facet normal 1 0 0
    outer loop
      vertex 150 0 0
      vertex 150 41.5 0.4
      vertex 150 1.5 0.4
    endloop
  endfacet
  facet normal 1 0 0
    outer loop
      vertex 150 0 0
      vertex 150 1.5 0.4
      vertex 150 0 5
    endloop
  endfacet
  facet normal 1 0 -0
    outer loop
      vertex 150 1.5 0.4
      vertex 150 1.5 5
      vertex 150 0 5
    endloop
  endfacet
  facet normal 0 0 -1
    outer loop
      vertex 0 0 0
      vertex 0 41.5 0
      vertex 150 41.5 0
    endloop
  endfacet
  facet normal 0 0 -1
    outer loop
      vertex 0 0 0
      vertex 150 41.5 0
      vertex 150 0 0
    endloop
  endfacet
  facet normal 0 1 0
    outer loop
      vertex 0 41.5 0
      vertex 0 41.5 0.4
      vertex 150 41.5 0.4
    endloop
  endfacet
  facet normal 0 1 0
    outer loop
      vertex 0 41.5 0
      vertex 150 41.5 0.4
      vertex 150 41.5 0
    endloop
  endfacet
  facet normal 0 0 1
    outer loop
      vertex 0 41.5 0.4
      vertex 0 1.5 0.4
      vertex 150 1.5 0.4
    endloop
  endfacet
  facet normal -0 0 1
    outer loop
      vertex 0 41.5 0.4
      vertex 150 1.5 0.4
      vertex 150 41.5 0.4
    endloop
  endfacet
  facet normal 0 1 0
    outer loop
      vertex 0 1.5 0.4
      vertex 0 1.5 5
      vertex 150 1.5 5
    endloop
  endfacet
  facet normal 0 1 0
    outer loop
      vertex 0 1.5 0.4
      vertex 150 1.5 5
      vertex 150 1.5 0.4
    endloop
  endfacet
  facet normal 0 0 1
    outer loop
      vertex 0 1.5 5
      vertex 0 0 5
      vertex 150 0 5
    endloop
  endfacet
  facet normal -0 0 1
    outer loop
      vertex 0 1.5 5
      vertex 150 0 5
      vertex 150 1.5 5
    endloop
  endfacet
  facet normal 0 -1 0
    outer loop
      vertex 0 0 5
      vertex 0 0 0
      vertex 150 0 0
    endloop
  endfacet
  facet normal 0 -1 0
    outer loop
      vertex 0 0 5
      vertex 150 0 0
      vertex 150 0 5
    endloop
  endfacet
endsolid K1_modelled_display_fin_units_mm
